<svg xmlns="http://www.w3.org/2000/svg" viewBox="0 0 66.05 61.98"><title>icon__present</title><g id="Layer_2" data-name="Layer 2"><g id="Graphic_Elements" data-name="Graphic Elements"><g id="The_Best_of_Microsoft" data-name="The Best of Microsoft"><g id="Icons"><polygon points="47.89 14.2 33.51 21.35 47.89 28.54 62.27 21.35 47.89 14.2" style="fill:#fff"/><polygon points="48.48 32.59 33.51 40.05 33.51 61.98 48.48 54.47 48.48 32.59" style="fill:#fff"/><polygon points="28.5 40.05 13.54 32.59 13.5 54.51 28.5 61.98 28.5 40.05" style="fill:#fff"/><polygon points="0 21.35 14.38 28.54 28.77 21.35 14.38 14.2 0 21.35" style="fill:#fff"/><path d="M42.87,4.6a3.33,3.33,0,0,1-1.24-.74,3.2,3.2,0,0,1-.74-1.24A13.55,13.55,0,0,1,40.37.56C40.26.19,40.05,0,39.73,0a.61.61,0,0,0-.64.56,14.86,14.86,0,0,1-.52,2.06,3.46,3.46,0,0,1-.74,1.24,3.33,3.33,0,0,1-1.24.74,13.55,13.55,0,0,1-2.06.52c-.37.11-.56.32-.56.64a.61.61,0,0,0,.56.64,13.55,13.55,0,0,1,2.06.52,3.33,3.33,0,0,1,1.24.74,3.46,3.46,0,0,1,.74,1.24A14.86,14.86,0,0,1,39.09,11a.61.61,0,0,0,.64.56c.32,0,.53-.19.64-.56a13.55,13.55,0,0,1,.52-2.06,3.2,3.2,0,0,1,.74-1.24,3.33,3.33,0,0,1,1.24-.74,13.25,13.25,0,0,1,2.06-.52.61.61,0,0,0,.56-.64c0-.32-.19-.53-.56-.64A13.25,13.25,0,0,1,42.87,4.6Z" style="fill:#fff"/><path d="M30.11,34.14a13.22,13.22,0,0,1,.51,2,.61.61,0,0,0,.64.56.63.63,0,0,0,.64-.56,14.31,14.31,0,0,1,.52-2,2.93,2.93,0,0,1,2-2,14.31,14.31,0,0,1,2.05-.52A.61.61,0,0,0,37,31c0-.32-.18-.53-.56-.64a13.22,13.22,0,0,1-2.05-.51,2.93,2.93,0,0,1-2-2,14.49,14.49,0,0,1-.52-2.06.64.64,0,0,0-.64-.56.62.62,0,0,0-.64.56,13.39,13.39,0,0,1-.51,2.06,2.93,2.93,0,0,1-2,2,13.53,13.53,0,0,1-2.05.51c-.38.11-.57.32-.57.64a.61.61,0,0,0,.57.64,14.67,14.67,0,0,1,2.05.52,2.93,2.93,0,0,1,2,2Z" style="fill:#fff"/><path d="M55.09,36.64a14.49,14.49,0,0,1,2.06.52,3.46,3.46,0,0,1,1.24.74,3.2,3.2,0,0,1,.74,1.24,13.55,13.55,0,0,1,.52,2.06.61.61,0,0,0,.64.56c.32,0,.53-.18.64-.56a14.86,14.86,0,0,1,.52-2.06,2.95,2.95,0,0,1,2-2,14.86,14.86,0,0,1,2.06-.52.61.61,0,0,0,.56-.64c0-.32-.19-.53-.56-.64a13.55,13.55,0,0,1-2.06-.52,3.2,3.2,0,0,1-1.24-.74,3.38,3.38,0,0,1-.74-1.24,14.49,14.49,0,0,1-.52-2.06c-.11-.37-.32-.56-.64-.56a.61.61,0,0,0-.64.56,13.25,13.25,0,0,1-.52,2.06,3.13,3.13,0,0,1-.74,1.24,3.2,3.2,0,0,1-1.24.74,13.25,13.25,0,0,1-2.06.52c-.37.11-.56.32-.56.64A.61.61,0,0,0,55.09,36.64Z" style="fill:#fff"/></g></g></g></g></svg>