<svg xmlns="http://www.w3.org/2000/svg" viewBox="0 0 70 64.22"><title>icon__security</title><g id="Layer_2" data-name="Layer 2"><g id="Graphic_Elements" data-name="Graphic Elements"><g id="The_Best_of_Microsoft" data-name="The Best of Microsoft"><g id="Icons"><path d="M0,55H35.07a30.63,30.63,0,0,1-1.71-2.79,29.68,29.68,0,0,1-2.46-6,24,24,0,0,1-.9-6.6V28.91A30.09,30.09,0,0,0,37.52,28a24.2,24.2,0,0,0,6.93-3,16,16,0,0,1,3.83-1.83,15.39,15.39,0,0,1,8.44,0,16.22,16.22,0,0,1,3.83,1.83,24.2,24.2,0,0,0,6.93,3c.82.21,1.67.34,2.52.48V15H0Z" style="fill:#fff"/><rect width="70" height="10" style="fill:#fff"/><path d="M70,39.57v-6A34.23,34.23,0,0,1,63.61,32a25.64,25.64,0,0,1-5.88-2.93,9.55,9.55,0,0,0-10.46,0A25.64,25.64,0,0,1,41.39,32,34.23,34.23,0,0,1,35,33.55v6a19.67,19.67,0,0,0,1.52,7.68,28.28,28.28,0,0,0,4,6.71,37.77,37.77,0,0,0,5.62,5.69,60.07,60.07,0,0,0,6.35,4.57,60.07,60.07,0,0,0,6.35-4.57A37.77,37.77,0,0,0,64.47,54a28.28,28.28,0,0,0,4-6.71A19.67,19.67,0,0,0,70,39.57Z" style="fill:#fff"/></g></g></g></g></svg>