<svg xmlns="http://www.w3.org/2000/svg" viewBox="0 0 78.54 75.33"><title>icon__vpn</title><g id="Layer_2" data-name="Layer 2"><g id="Graphic_Elements" data-name="Graphic Elements"><g id="The_Best_of_Microsoft" data-name="The Best of Microsoft"><g id="Icons"><path d="M0,33.92H15.17a5,5,0,0,1,5,5v24H35.43v7.45h-10v5h25V70.41H43.49a5.56,5.56,0,0,1-.83-.08,5,5,0,0,1-2.23-1,5,5,0,0,1-1.92-3.9v-25a5,5,0,0,1,5-5H75.43V15.35H57l-2.46,2.46L42,30.33l-3.54,3.54L35,30.33,22.42,17.81,20,15.35H0Z" style="fill:#fff"/><path d="M.12,38.91l0,24v3.55l15,0V38.89Zm9.4,25h-5V59h5Z" style="fill:#fff"/><polygon points="38.48 26.8 49.93 15.35 51.01 14.27 47.26 10.53 42.41 15.35 41.15 16.6 41.15 15.35 41.15 0 35.82 0 35.82 15.35 35.82 16.6 34.56 15.35 29.7 10.53 25.96 14.27 27.04 15.35 38.48 26.8" style="fill:#fff"/><path d="M78.54,65.41l0-25h-3.1l-31.93,0,0,22.48v2.52Zm-21.75-7.5h7.5v5h-7.5Z" style="fill:#fff"/></g></g></g></g></svg>