<svg xmlns="http://www.w3.org/2000/svg" viewBox="0 0 68.44 80"><title>icon__support</title><g id="Layer_2" data-name="Layer 2"><g id="Graphic_Elements" data-name="Graphic Elements"><g id="The_Best_of_Microsoft" data-name="The Best of Microsoft"><g id="Icons"><path d="M64.32,68a28.8,28.8,0,0,0-7.39-8.59,30.52,30.52,0,0,0-10.17-5.16A43.45,43.45,0,0,0,34.22,52.5a43.45,43.45,0,0,0-12.54,1.72A30.67,30.67,0,0,0,11.5,59.38,28.91,28.91,0,0,0,4.12,68,36.27,36.27,0,0,0,0,80H68.44A36.5,36.5,0,0,0,64.32,68Z" style="fill:#fff"/><path d="M61,15.74A2.43,2.43,0,0,0,59.22,15H55a23.71,23.71,0,0,0-3.24-6.15A22.1,22.1,0,0,0,47,4.12,21.4,21.4,0,0,0,34.22,0a21.22,21.22,0,0,0-9.06,1.91,21.67,21.67,0,0,0-7,5.18,23.77,23.77,0,0,0-4.55,7.56A25.57,25.57,0,0,0,12,23.75a25.57,25.57,0,0,0,1.62,9.1,23.77,23.77,0,0,0,4.55,7.56,21.67,21.67,0,0,0,7,5.18,21.22,21.22,0,0,0,9.06,1.91A21.4,21.4,0,0,0,47,43.38a22.1,22.1,0,0,0,4.73-4.73A23.71,23.71,0,0,0,55,32.5h4.22a2.53,2.53,0,0,0,2.5-2.5V17.5A2.43,2.43,0,0,0,61,15.74Zm-9.38,11a15.18,15.18,0,0,1-3.75,5.62,19.33,19.33,0,0,1-5.62,3.75,2.17,2.17,0,0,1-.51.2,3.44,3.44,0,0,1-.31,1.44,4.3,4.3,0,0,1-.82,1.18,3.82,3.82,0,0,1-1.2.8A3.64,3.64,0,0,1,38,40H33a3.75,3.75,0,1,1,0-7.5h5a3.52,3.52,0,0,1,1.62.39A4.06,4.06,0,0,1,40.9,34l.35-.12a12.05,12.05,0,0,0,4.82-3.22,19.62,19.62,0,0,0,3.23-4.83,1.29,1.29,0,0,1,2.07-.43,1.19,1.19,0,0,1,.35.86A1.13,1.13,0,0,1,51.6,26.72Z" style="fill:#fff"/></g></g></g></g></svg>