<svg xmlns="http://www.w3.org/2000/svg" viewBox="0 0 80 50"><title>icon__cloud</title><g id="Layer_2" data-name="Layer 2"><g id="Graphic_Elements" data-name="Graphic Elements"><g id="The_Best_of_Microsoft" data-name="The Best of Microsoft"><g id="Icons"><path d="M78.44,22.21A19.93,19.93,0,0,0,67.79,11.56a19.83,19.83,0,0,0-11.42-1.21A23.72,23.72,0,0,0,52.76,6a21.88,21.88,0,0,0-4.48-3.27A22.32,22.32,0,0,0,37.5,0a22.1,22.1,0,0,0-8.18,1.52,22.53,22.53,0,0,0-6.82,4.2,22.76,22.76,0,0,0-4.9,6.35A23.11,23.11,0,0,0,15.12,20a14.87,14.87,0,0,0-5.88,1.17,14.93,14.93,0,0,0-8,7.93,15.19,15.19,0,0,0,0,11.74,15.06,15.06,0,0,0,8,8A14.62,14.62,0,0,0,15,50H60a19.6,19.6,0,0,0,7.79-1.56A19.93,19.93,0,0,0,78.44,37.79a20.23,20.23,0,0,0,0-15.58Z" style="fill:#fff"/></g></g></g></g></svg>