<svg xmlns="http://www.w3.org/2000/svg" viewBox="0 0 79.65 76.98"><title>icon__keys</title><g id="Layer_2" data-name="Layer 2"><g id="Graphic_Elements" data-name="Graphic Elements"><g id="The_Best_of_Microsoft" data-name="The Best of Microsoft"><g id="Icons"><path d="M72.34,30.05H52.51a22.35,22.35,0,0,1,2.63,10.52c0,.64,0,1.26-.1,1.88l2.65-2.65,4.88,4.88,4.88-4.88,4.88,4.88,7.32-7.32Z" style="fill:#fff"/><path d="M46.68,51a17.28,17.28,0,0,0,2.25-4c.07-.17.13-.36.2-.54.17-.47.32-1,.45-1.45.07-.28.15-.55.21-.82a18.55,18.55,0,0,0,.29-1.84,17.56,17.56,0,0,0-3.9-12.92c-.07-.09-.15-.17-.23-.26a17.19,17.19,0,0,0-2.1-2.08c-.08-.08-.18-.14-.27-.22-.44-.35-.85-.74-1.33-1.05a17.3,17.3,0,0,0-2.47-1.34l-.23-.09a19.69,19.69,0,0,0,.5-4.29s0-.05,0-.08,0-.11,0-.17,0-.35,0-.52,0-.44,0-.66,0-.57-.06-.85-.09-.6-.13-.89-.11-.75-.19-1.11c0-.17-.09-.33-.13-.49-.11-.48-.23-1-.38-1.43a.69.69,0,0,1,0-.1,19.86,19.86,0,0,0-1.49-3.44l0-.06c-.3-.53-.61-1.05-1-1.54C36.4,8.5,36.2,8.26,36,8s-.36-.51-.56-.74c-.38-.47-.8-.92-1.23-1.36l0,0a20.4,20.4,0,0,0-2.91-2.4l-.06-.05c-.41-.27-.84-.52-1.27-.77l-.44-.26c-.32-.17-.66-.32-1-.48s-.55-.27-.83-.38-.53-.2-.79-.3S26.14,1,25.76.85L25.6.79C25.4.73,25.19.7,25,.64,24.6.55,24.21.45,23.81.37l-1-.15c-.33,0-.66-.1-1-.13L20.69,0c-.22,0-.44,0-.66,0h-.17c-.39,0-.77,0-1.16.06s-.59,0-.88.06-.58.09-.87.13-.75.11-1.12.19l-.47.12c-.49.12-1,.24-1.45.4l-.07,0a20.19,20.19,0,0,0-3.47,1.5l-.06,0c-.53.3-1,.61-1.54,1-.27.18-.53.39-.79.59s-.48.35-.71.54c-.48.39-.94.81-1.39,1.25h0A19.47,19.47,0,0,0,3.46,8.8l0,0c-.28.42-.53.86-.78,1.3-.08.13-.17.27-.24.41-.18.33-.34.68-.5,1s-.26.52-.37.79-.2.55-.3.83S1,13.92.85,14.3l-.06.16c-.09.33-.16.66-.24,1s-.11.43-.16.65c-.12.61-.21,1.22-.28,1.84,0,.12,0,.25,0,.37,0,.51-.07,1-.08,1.52C0,19.89,0,20,0,20s0,.38,0,.58,0,.56,0,.84.06.67.1,1,0,.4.08.59c.06.41.14.82.23,1.22a3,3,0,0,0,.07.32c.11.47.24.93.38,1.39l0,.13c.16.5.33,1,.53,1.46l0,.05c.2.48.42,1,.65,1.42l0,.07c.23.45.47.88.73,1.31,0,.05.07.1.1.16.24.38.49.76.76,1.13L4,32c.23.32.48.62.73.92l.36.42c.22.25.44.48.67.72l.53.52c.2.19.4.37.61.54s.45.39.68.57.37.29.56.43l.78.56.57.36.5.32.27.14a.2.2,0,0,1,.08,0c.45.24.91.48,1.38.69s.78.34,1.18.49.63.25.95.35.4.16.61.22.34.06.51.11l.16,0,.07,0c.29.07.59.11.89.17.48.09,1,.21,1.46.27a18.44,18.44,0,0,0,2.48.17h.07c.65,0,1.28-.08,1.92-.14.34,0,.68,0,1-.09s.94-.21,1.41-.31,1-.2,1.47-.35l.08,0,.08,0a20.16,20.16,0,0,0,5-2.37,2.5,2.5,0,1,0-2.77-4.17,14.56,14.56,0,0,1-3.87,1.82,10.52,10.52,0,0,1-1.11.26c-.35.08-.7.19-1.06.24l-.69.06a15.11,15.11,0,0,1-1.51.11c-.38,0-.77-.05-1.15-.08a15.12,15.12,0,0,1-2.24-.33l-.52-.11h0A14.87,14.87,0,0,1,12,32.7l-.37-.27-.6-.43c-.33-.25-.66-.49-1-.76s-.61-.6-.91-.91-.51-.52-.74-.8-.58-.78-.85-1.18-.35-.51-.51-.78a13.66,13.66,0,0,1-.69-1.38c-.12-.27-.25-.53-.36-.8A13.56,13.56,0,0,1,5.58,24c-.09-.33-.19-.65-.26-1s-.13-.85-.18-1.28-.09-.84-.1-1.27a15.38,15.38,0,0,1,0-2l0-.18A14.28,14.28,0,0,1,5.56,16c0-.1.05-.2.07-.3.09-.28.19-.56.29-.83s.14-.41.23-.61.18-.4.27-.6.24-.53.38-.78c0-.1.12-.2.18-.3.19-.33.38-.66.59-1l0,0A14.63,14.63,0,0,1,9.41,9.41h0c.33-.33.67-.64,1-.94.18-.15.36-.28.55-.41s.38-.3.58-.44c.38-.26.77-.49,1.17-.72l0,0A14.8,14.8,0,0,1,15.4,5.74h0c.37-.12.74-.21,1.11-.3l.33-.09c.28-.06.57-.1.86-.14s.43-.08.64-.1.45,0,.67,0,.57,0,.86,0,.42,0,.63,0,.59,0,.87,0,.5.06.75.1.48.06.72.11.58.13.88.2l.58.15c.29.09.56.19.84.29s.41.14.6.23.4.18.6.27.53.24.78.38l.3.17c.33.19.66.39,1,.6l0,0a15.22,15.22,0,0,1,2.19,1.82h0c.33.34.65.68.94,1,.15.18.28.37.42.55s.29.38.43.58q.39.57.72,1.17l0,0a14.8,14.8,0,0,1,1.13,2.62l0,0c.11.36.2.73.29,1.1,0,.12.07.23.09.34.06.28.1.57.14.85s0,.3.07.46a1.25,1.25,0,0,1,0,.19c0,.22,0,.44,0,.66s0,.58,0,.87a14.82,14.82,0,0,1-.33,3.23c-.38,0-.75-.09-1.14-.11s-.6,0-.9,0a17.92,17.92,0,0,0-1.95.11c-.38,0-.74.15-1.12.21s-.53.09-.79.15-.72.18-1.08.28a16.15,16.15,0,0,0-1.92.67h0c-.37.15-.72.34-1.08.51-.2.11-.4.2-.59.31s-.38.23-.57.35c-.35.21-.69.42-1,.65l-.16.13a17.9,17.9,0,0,0-3.65,3.57,9.53,9.53,0,0,0,1.31.13,10,10,0,0,0,5.53-1.65A7.48,7.48,0,0,1,36,30.51a7.53,7.53,0,0,1-2.11,10.4A25,25,0,0,1,20,45.06a24.24,24.24,0,0,1-4.37-.41A17.53,17.53,0,0,0,32.68,58a17.29,17.29,0,0,0,5.45-.88v6H45v6.9h6.9V77H62.29V66.64L50.22,54.58Z" style="fill:#fff"/></g></g></g></g></svg>