<svg xmlns="http://www.w3.org/2000/svg" viewBox="0 0 80 79.72"><title>icon__settings</title><g id="Layer_2" data-name="Layer 2"><g id="Graphic_Elements" data-name="Graphic Elements"><g id="The_Best_of_Microsoft" data-name="The Best of Microsoft"><g id="Icons"><path d="M78.16,1.84a6,6,0,0,0-2-1.35A6,6,0,0,0,73.75,0H6.25A6,6,0,0,0,3.83.49a6,6,0,0,0-2,1.35,6,6,0,0,0-1.35,2A6,6,0,0,0,0,6.25v47.5a6,6,0,0,0,.49,2.42,6,6,0,0,0,1.35,2,6,6,0,0,0,2,1.35A6,6,0,0,0,6.25,60H36.34l.41-.26-3-1.86L35,55H6.25A1.2,1.2,0,0,1,5,53.75V6.25A1.2,1.2,0,0,1,6.25,5h67.5A1.2,1.2,0,0,1,75,6.25V39l2.2.91-.8,3.45,3.46-.79.14.34V6.25a6,6,0,0,0-.49-2.42A6,6,0,0,0,78.16,1.84Z" style="fill:#fff"/><polygon points="30 45 30 50 35 50 37.02 50 39.1 45 35 45 30 45" style="fill:#fff"/><path d="M76.85,71.12,80,63.62,74.9,60.45V59.9s0-.1,0-.15,0-.25,0-.35v-.35l4.62-2.88a8.54,8.54,0,0,0,.25-.82l-2.92-7L75,48.77l-4,.93c-.32-.35-.65-.68-1-1l1.32-5.83-7.52-3.12-3.15,5.1c-.13,0-.25,0-.35,0h-.73c-.1,0-.22,0-.35,0l-3.15-5.1L48.6,42.87,49.1,45l.82,3.7c-.32.32-.65.65-1,1l-4-.93-1.88-.42L42.45,50l-2.08,5-.37.87,5.07,3.18v1.4L40,63.62l3.12,7.5L49,69.8c.32.35.65.67,1,1L48.6,76.6l7.52,3.12,3.15-5.07h.35a2.42,2.42,0,0,0,.38,0,2.24,2.24,0,0,0,.35,0h.35l3.15,5.07,7.52-3.12-1.32-5.83c.32-.3.65-.62,1-1ZM67.35,60a7.22,7.22,0,0,1-.55,2.62A8,8,0,0,1,65.22,65a7.65,7.65,0,0,1-2.35,1.58,7.53,7.53,0,0,1-2.87.57A7.32,7.32,0,0,1,54.77,65a7.11,7.11,0,0,1-2.15-5c0-.08,0-.18,0-.25a7.47,7.47,0,0,1,.57-2.88A7.38,7.38,0,0,1,54.37,55c.13-.15.25-.33.4-.48A7.56,7.56,0,0,1,60,52.35a7,7,0,0,1,2.87.6,7.13,7.13,0,0,1,2.35,1.57c.13.15.25.33.38.48a7.38,7.38,0,0,1,1.2,1.87,7.47,7.47,0,0,1,.57,2.88C67.37,59.82,67.35,59.92,67.35,60Z" style="fill:#fff"/><path d="M62.37,59.75c0,.1,0,.15,0,.25a2.77,2.77,0,0,1-.12.65A2.57,2.57,0,0,1,60.9,62a2.25,2.25,0,0,1-.9.17,2.13,2.13,0,0,1-.9-.17,2.16,2.16,0,0,1-.8-.53,2.64,2.64,0,0,1-.53-.77,2.77,2.77,0,0,1-.12-.65c0-.1,0-.15,0-.25a2.49,2.49,0,0,1,.17-.9,2.43,2.43,0,0,1,.53-.8,3,3,0,0,1,.8-.53,2.49,2.49,0,0,1,.9-.17,2.66,2.66,0,0,1,.9.17,3.38,3.38,0,0,1,.77.53,2.16,2.16,0,0,1,.53.8A2.13,2.13,0,0,1,62.37,59.75Z" style="fill:#fff"/></g></g></g></g></svg>