<svg xmlns="http://www.w3.org/2000/svg" viewBox="0 0 71.66 55.44"><title>icon__devices</title><g id="Layer_2" data-name="Layer 2"><g id="Graphic_Elements" data-name="Graphic Elements"><g id="The_Best_of_Microsoft" data-name="The Best of Microsoft"><g id="Icons"><path d="M71.66,45V0H7.91V21.05H22.63V45h14v5h-10v5h25V50h-10V45ZM44.13,22.3a2.5,2.5,0,1,1-2.5-2.5A2.5,2.5,0,0,1,44.13,22.3ZM41.86,9.73a12.79,12.79,0,0,1,12,9.27H48.56a7.81,7.81,0,0,0-5.85-4.18Zm-.23,20.62a7.81,7.81,0,0,0,7.65-6.3h5a12.76,12.76,0,0,1-12.65,11.3Zm-3.9-14.58a7.84,7.84,0,0,0-3.92,6.76h-5a12.8,12.8,0,0,1,8.1-11.88Z" style="fill:#fff"/><path d="M17.64,45v-19H0V55.44H17.64Zm-4.1-5V50.65H4.09V30.84h9.45Z" style="fill:#fff"/></g></g></g></g></svg>