<svg xmlns="http://www.w3.org/2000/svg" viewBox="0 0 63.43 64.4"><title>icon__wifi</title><g id="Layer_2" data-name="Layer 2"><g id="Graphic_Elements" data-name="Graphic Elements"><g id="The_Best_of_Microsoft" data-name="The Best of Microsoft"><g id="Icons"><path d="M51.71,0,48.2,3.52a35,35,0,0,1,7.59,11.36A34.93,34.93,0,0,1,48.2,53l3.51,3.55A39.56,39.56,0,0,0,63.43,28.28,39.56,39.56,0,0,0,51.71,0Z" style="fill:#fff"/><path d="M53.43,28.28A29.89,29.89,0,0,0,51.17,16.8a29.35,29.35,0,0,0-6.53-9.73l-3.51,3.52a24.54,24.54,0,0,1,5.43,8.12,25.37,25.37,0,0,1,0,19.12,24.6,24.6,0,0,1-5.43,8.11l3.51,3.55a29.31,29.31,0,0,0,6.53-9.72A29.94,29.94,0,0,0,53.43,28.28Z" style="fill:#fff"/><path d="M34.06,38.87l3.51,3.55a20.11,20.11,0,0,0,4.36-21.81,19.5,19.5,0,0,0-4.36-6.47l-3.51,3.52a14.79,14.79,0,0,1,3.24,4.86,15.12,15.12,0,0,1,1.13,5.76,15,15,0,0,1-4.37,10.59Z" style="fill:#fff"/><path d="M1.78,39.08a5.43,5.43,0,0,0,1.64.2c.58,0,1.11,0,1.58,0V64.4h5V44.26h5V64.4h5V39.26h2.5A1.9,1.9,0,0,0,23.55,39a2.66,2.66,0,0,0,.79-.81,4.16,4.16,0,0,0,.48-1.07A3.7,3.7,0,0,0,25,36V24.26a4,4,0,0,0-.45-1.8,6.1,6.1,0,0,0-2.75-2.75,4,4,0,0,0-1.8-.45H5a3.93,3.93,0,0,0-1.76.45A6.27,6.27,0,0,0,.45,22.5,3.9,3.9,0,0,0,0,24.26v12.5a2.19,2.19,0,0,0,.51,1.58A2.75,2.75,0,0,0,1.78,39.08Z" style="fill:#fff"/><path d="M12.5,14.11a6,6,0,1,0-6-6A6,6,0,0,0,12.5,14.11Z" style="fill:#fff"/></g></g></g></g></svg>