<svg xmlns="http://www.w3.org/2000/svg" viewBox="0 0 56.25 52.26"><title>icon__cloud-arrows</title><g id="Layer_2" data-name="Layer 2"><g id="Graphic_Elements" data-name="Graphic Elements"><g id="The_Best_of_Microsoft" data-name="The Best of Microsoft"><g id="Icons"><path d="M4.11,11.14a14.09,14.09,0,0,0,0,19.91,14.25,14.25,0,0,0,4.47,3c.26.11.52.19.78.28l10.5-10.5L31.18,35.16h.75V29H43.18v6.16H45.7a10.33,10.33,0,0,0,4.1-.83,10.63,10.63,0,0,0,3.36-2.26,10.85,10.85,0,0,0,2.27-3.35,10.69,10.69,0,0,0,0-8.26,10.65,10.65,0,0,0-2.28-3.34,10.76,10.76,0,0,0-3.37-2.23,10.52,10.52,0,0,0-4.14-.83,16.55,16.55,0,0,0-1.74-5.57A16.05,16.05,0,0,0,40.43,4,15.84,15.84,0,0,0,22.3,1.92a15.16,15.16,0,0,0-3.14,2.3,16,16,0,0,0-2.54,3.06A13.22,13.22,0,0,0,14.06,7a14,14,0,0,0-9.95,4.11Z" style="fill:#fff"/><polygon points="21.74 48.66 21.74 36.32 26.05 40.6 28.68 37.96 25.88 35.16 19.86 29.14 13.86 35.15 11.05 37.96 13.68 40.6 17.99 36.32 17.99 48.66 21.74 48.66" style="fill:#fff"/><polygon points="39.43 32.75 35.68 32.75 35.68 35.16 35.68 45.08 31.38 40.8 28.74 43.44 37.56 52.26 46.38 43.44 43.74 40.8 39.43 45.08 39.43 35.16 39.43 32.75" style="fill:#fff"/></g></g></g></g></svg>