<svg xmlns="http://www.w3.org/2000/svg" viewBox="0 0 60 79.6"><title>icon__lock</title><g id="Layer_2" data-name="Layer 2"><g id="Graphic_Elements" data-name="Graphic Elements"><g id="The_Best_of_Microsoft" data-name="The Best of Microsoft"><g id="Icons"><path d="M50,35V20.4A20.55,20.55,0,0,0,44.25,6,20,20,0,0,0,37.9,1.6a20.3,20.3,0,0,0-15.8,0A20,20,0,0,0,15.75,6,20.55,20.55,0,0,0,10,20.4V35H0V79.6H60V35ZM30,68.55a10,10,0,1,1,10-10A10,10,0,0,1,30,68.55ZM15,35V20.4A15.68,15.68,0,0,1,19.28,9.53a14.56,14.56,0,0,1,4.77-3.3A14.25,14.25,0,0,1,30,5a14.25,14.25,0,0,1,6,1.23,14.46,14.46,0,0,1,4.77,3.3A15.68,15.68,0,0,1,45,20.4V35Z" style="fill:#fff"/><circle cx="30" cy="58.55" r="5" style="fill:#fff"/></g></g></g></g></svg>